<svg xmlns="http://www.w3.org/2000/svg" width="48" height="48" viewBox="0 0 48 48"><path d="M46.125,33A1.875,1.875,0,0,0,48,31.125V11.25a7.509,7.509,0,0,0-7.5-7.5H38.063V1.875a1.875,1.875,0,1,0-3.75,0V3.75H25.781V1.875a1.875,1.875,0,1,0-3.75,0V3.75H13.594V1.875a1.875,1.875,0,1,0-3.75,0V3.75H7.5A7.509,7.509,0,0,0,0,11.25V40.5A7.509,7.509,0,0,0,7.5,48h33A7.509,7.509,0,0,0,48,40.5a1.875,1.875,0,0,0-3.75,0,3.754,3.754,0,0,1-3.75,3.75H7.5A3.754,3.754,0,0,1,3.75,40.5V11.25A3.754,3.754,0,0,1,7.5,7.5H9.844V9.375a1.875,1.875,0,0,0,3.75,0V7.5h8.438V9.375a1.875,1.875,0,1,0,3.75,0V7.5h8.531V9.375a1.875,1.875,0,0,0,3.75,0V7.5H40.5a3.754,3.754,0,0,1,3.75,3.75V31.125A1.875,1.875,0,0,0,46.125,33Z"/><path d="M151.98,201.782l-9.242,12.909a1.071,1.071,0,0,1-1.542.08l-5.983-5.745a1.875,1.875,0,0,0-2.6,2.7l5.989,5.751a4.835,4.835,0,0,0,3.326,1.329q.159,0,.318-.011a4.834,4.834,0,0,0,3.437-1.79q.033-.041.063-.083l9.279-12.962a1.875,1.875,0,1,0-3.049-2.183Z" transform="translate(-119.661 -182.155)"/></svg>