<svg xmlns="http://www.w3.org/2000/svg" width="48" height="48" viewBox="0 0 48 48"><circle cx="2" cy="2" r="2" transform="translate(33.924 17.96)"/><path d="M40.5,3.75H38.062V1.875a1.875,1.875,0,1,0-3.75,0V3.75H25.781V1.875a1.875,1.875,0,1,0-3.75,0V3.75H13.594V1.875a1.875,1.875,0,1,0-3.75,0V3.75H7.5A7.509,7.509,0,0,0,0,11.25V40.5A7.509,7.509,0,0,0,7.5,48H21.844a1.875,1.875,0,1,0,0-3.75H7.5A3.754,3.754,0,0,1,3.75,40.5V11.25A3.754,3.754,0,0,1,7.5,7.5H9.844V9.375a1.875,1.875,0,1,0,3.75,0V7.5h8.437V9.375a1.875,1.875,0,1,0,3.75,0V7.5h8.531V9.375a1.875,1.875,0,1,0,3.75,0V7.5H40.5a3.754,3.754,0,0,1,3.75,3.75V21.937a1.875,1.875,0,1,0,3.75,0V11.25A7.509,7.509,0,0,0,40.5,3.75Z"/><path d="M281.367,270a11.367,11.367,0,1,0,11.367,11.367A11.38,11.38,0,0,0,281.367,270Zm0,18.976a7.609,7.609,0,1,1,7.609-7.609A7.618,7.618,0,0,1,281.367,288.976Z" transform="translate(-244.734 -244.734)"/><path d="M375.6,333.852h-.845v-1.973a1.879,1.879,0,1,0-3.758,0v3.852a1.879,1.879,0,0,0,1.879,1.879H375.6a1.879,1.879,0,0,0,0-3.758Z" transform="translate(-336.246 -299.074)"/><circle cx="2" cy="2" r="2" transform="translate(25.942 17.96)"/><circle cx="2" cy="2" r="2" transform="translate(17.96 25.942)"/><circle cx="2" cy="2" r="2" transform="translate(8.98 17.96)"/><circle cx="2" cy="2" r="2" transform="translate(8.98 25.942)"/><circle cx="2" cy="2" r="2" transform="translate(8.98 33.924)"/><circle cx="2" cy="2" r="2" transform="translate(17.96 33.924)"/><circle cx="2" cy="2" r="2" transform="translate(17.96 17.96)"/></svg>