<svg xmlns="http://www.w3.org/2000/svg" width="48.004" height="48.004" viewBox="0 0 48.004 48.004"><path d="M10.595,17.626a3.755,3.755,0,0,0-3.75,3.75v2.813a3.755,3.755,0,0,0,3.75,3.75h2.813a3.755,3.755,0,0,0,3.75-3.75V21.377a3.755,3.755,0,0,0-3.75-3.75Zm2.813,6.563H10.595V21.377h2.813l0,2.813ZM34.6,37.5h2.813a3.755,3.755,0,0,0,3.75-3.75V30.94a3.755,3.755,0,0,0-3.75-3.75H34.6a3.755,3.755,0,0,0-3.75,3.75v2.813A3.755,3.755,0,0,0,34.6,37.5Zm0-6.563h2.813l0,2.813H34.6Zm9.657.188V11.251A3.755,3.755,0,0,0,40.5,7.5H38.066V9.376a1.875,1.875,0,0,1-3.75,0V7.5H25.783V9.376a1.875,1.875,0,1,1-3.75,0V7.5H13.595V9.376a1.875,1.875,0,0,1-3.75,0V7.5H7.5a3.755,3.755,0,0,0-3.75,3.75V40.5a3.755,3.755,0,0,0,3.75,3.75h33a3.755,3.755,0,0,0,3.75-3.75,1.875,1.875,0,1,1,3.75,0A7.509,7.509,0,0,1,40.5,48H7.5A7.509,7.509,0,0,1,0,40.5V11.251a7.509,7.509,0,0,1,7.5-7.5H9.845V1.875a1.875,1.875,0,0,1,3.75,0V3.75h8.438V1.875a1.875,1.875,0,0,1,3.75,0V3.75h8.532V1.875a1.875,1.875,0,0,1,3.75,0V3.75H40.5a7.509,7.509,0,0,1,7.5,7.5V31.128a1.875,1.875,0,1,1-3.75,0ZM24,22.5a1.875,1.875,0,1,1-1.875-1.875A1.875,1.875,0,0,1,24,22.5Zm7.032,0a1.875,1.875,0,1,1-1.875-1.875A1.875,1.875,0,0,1,31.034,22.5Zm3.282,0a1.875,1.875,0,1,1,1.875,1.875A1.875,1.875,0,0,1,34.315,22.5Zm0,0"/></svg>