<svg xmlns="http://www.w3.org/2000/svg" width="48" height="33" viewBox="0 0 48 33"><defs><style>.a,.d{fill:none;}.a{stroke:#fff;}.b{fill:#fff;}.c{stroke:none;}</style></defs><g class="a"><rect class="c" width="48" height="33"/><rect class="d" x="0.5" y="0.5" width="47" height="32"/></g><path class="b" d="M24,12A12,12,0,1,0,12,24c.07,0,.141,0,.211,0V14.659H9.634v-3h2.578V9.441A3.611,3.611,0,0,1,16.065,5.48a20.944,20.944,0,0,1,2.311.117V8.279H16.8c-1.242,0-1.486.591-1.486,1.458v1.913h2.977l-.389,3H15.315v8.884A12,12,0,0,0,24,12Z" transform="translate(11.999 4.499)"/></svg>