<svg xmlns="http://www.w3.org/2000/svg" width="183" height="46" viewBox="0 0 183 46"><defs><style>.a{fill:#4267b2;stroke:rgba(0,0,0,0.1);}.b,.c{fill:#fff;}.c{font-size:13px;font-family:TBCContractica-Book, TBC Contractica;}.d{stroke:none;}.e{fill:none;}</style></defs><g transform="translate(-0.001 0)"><g class="a" transform="translate(0.001 0)"><rect class="d" width="183" height="46"/><rect class="e" x="0.5" y="0.5" width="182" height="45"/></g><path class="b" d="M18.587,9.293a9.293,9.293,0,1,0-9.293,9.293c.054,0,.109,0,.163,0V11.352h-2V9.025h2V7.311a2.8,2.8,0,0,1,2.984-3.068,16.219,16.219,0,0,1,1.79.091V6.411h-1.22c-.962,0-1.151.457-1.151,1.129V9.021h2.305l-.3,2.327h-2v6.879A9.3,9.3,0,0,0,18.587,9.293Z" transform="translate(17.135 13.938)"/><text class="c" transform="translate(54.519 25.791)"><tspan x="0" y="0">ავტორიზაცია</tspan></text></g></svg>