<svg xmlns="http://www.w3.org/2000/svg" width="48" height="33" viewBox="0 0 48 33"><defs><style>.a,.d{fill:none;}.a{stroke:#fff;}.b{fill:#fff;}.c{stroke:none;}</style></defs><g class="a"><rect class="c" width="48" height="33"/><rect class="d" x="0.5" y="0.5" width="47" height="32"/></g><g transform="translate(11.999 4.498)"><path class="b" d="M12,0A12,12,0,1,0,24,12,12,12,0,0,0,12,0Zm6.03,9.866L15.1,12.8a1.686,1.686,0,0,1-2.384,0l-.115-.115L12.287,13l.115.115a1.688,1.688,0,0,1,0,2.384L9.466,18.433a1.686,1.686,0,0,1-2.384,0l-1.109-1.11a1.687,1.687,0,0,1,0-2.384L8.908,12a1.686,1.686,0,0,1,2.384,0l.115.115.313-.313-.115-.115a1.688,1.688,0,0,1,0-2.384L14.54,6.373a1.686,1.686,0,0,1,2.384,0l1.11,1.11A1.688,1.688,0,0,1,18.033,9.866Z" transform="translate(-0.001)"/><path class="b" d="M88.709,160.541l-.568.568-.88-.88.568-.568-.115-.115a.441.441,0,0,0-.623,0l-2.935,2.935a.441.441,0,0,0,0,.623l1.11,1.11a.451.451,0,0,0,.623,0l2.935-2.935a.441.441,0,0,0,0-.623Z" transform="translate(-77.304 -146.662)"/><path class="b" d="M158.1,89.159a.441.441,0,0,0-.623,0l-2.935,2.935a.441.441,0,0,0,0,.623l.115.115.871-.871.88.88-.871.871.115.115a.451.451,0,0,0,.623,0l2.935-2.935a.441.441,0,0,0,0-.623Z" transform="translate(-142.054 -81.906)"/></g></svg>